<svg xmlns="http://www.w3.org/2000/svg" viewBox="0 0 224.34 176.05"><title>Asset 2</title><g id="Layer_2" data-name="Layer 2"><g id="Layer_1-2" data-name="Layer 1"><path d="M185.54,147.64c-2.55,8.17-8.42,13-15.12,17.05a74.82,74.82,0,0,1-23.14,9c-27.31,5.76-52.73,1-76.27-13.89a132.13,132.13,0,0,1-51.09-58.92A225.51,225.51,0,0,1,5.57,56.72,275,275,0,0,1,.45,23.07,120.34,120.34,0,0,1,.25,4.86C.34,3.3.63,1.74.86,0,1.54.29,2.1.35,2.35.65c2.89,3.54,6.66,6,10.5,8.28A129.73,129.73,0,0,0,39.54,20.78,204.62,204.62,0,0,0,95.45,31.16c10,.41,20.13.74,30.05,2.73.63.12,1.26.2,1.89.32,26.63,5,44.22,21,55,45.22a86.12,86.12,0,0,1,7.65,33.45c.1,4.15.2,8.29.3,12.65a36.19,36.19,0,0,0,15.1,4c4,.27,8,.4,12,.43a5.67,5.67,0,0,1,5,3.08c2.47,3.9,2.72,9.29-.71,14.48a4.27,4.27,0,0,1-3.3,1.67,62,62,0,0,1-13.88.31c-5.57-.53-11.13-1.19-16.69-1.78C187.28,147.64,186.65,147.67,185.54,147.64ZM32.59,50.92c-.49,1.62.69,2.26,1.31,3.07A147.7,147.7,0,0,0,53,74.2a356.34,356.34,0,0,0,46,34.48,234.56,234.56,0,0,0,32,17.4,163.9,163.9,0,0,0,37.57,11.3c2.7.48,3.93-.13,5.08-2.38a13,13,0,0,0,1-7,3,3,0,0,0-2.38-2.71c-1.39-.35-2.81-.57-4.23-.8a205.35,205.35,0,0,1-60.91-19.68C93.91,98,81.31,90.12,68.83,82A163.89,163.89,0,0,1,35.24,53.58C34.44,52.68,33.54,51.87,32.59,50.92Zm-2.1-2.29h-.26l.15.32Z"/></g></g></svg>