<svg xmlns="http://www.w3.org/2000/svg" viewBox="0 0 258.12 176.93"><title>Asset 1</title><g id="Layer_2" data-name="Layer 2"><g id="Layer_1-2" data-name="Layer 1"><path d="M10.16,10c3,.52,5.19.77,7.32,1.32A5,5,0,0,0,22,10.42c1.15-.85,2.22-1.83,3.4-2.65a6.23,6.23,0,0,1,7.2-.43c1,.57,2,1.09,2.93,1.64a5.24,5.24,0,0,0,6.26-.25,36.31,36.31,0,0,1,4.44-2.84c3.3-1.75,6.62-2.44,9.86.21a5.76,5.76,0,0,0,6.31.68c2.06-.86,4.1-1.79,6.14-2.7,1.46-.64,2.88-1.41,4.39-1.91a7.27,7.27,0,0,1,6.86.89c.65.47,1.31.91,2,1.34a3.58,3.58,0,0,0,4.07,0C86.93,3.78,87.93,3,89,2.21,91.13.62,93.54.32,95.65,1.94c3.29,2.52,6.1,2.33,9.48-.05S112.76-.37,116.68,1a11.47,11.47,0,0,1,3.86,2.69,38.44,38.44,0,0,1,3.18,3.89A11.83,11.83,0,0,0,126,5.81a4,4,0,0,1,4.75-1.34,32,32,0,0,1,5.51,2.79A7.92,7.92,0,0,1,137.9,9c1.22,1.3,2.58,1.84,4.28.94A11.39,11.39,0,0,1,144,9.18a6.33,6.33,0,0,1,4.66.36,17.6,17.6,0,0,1,7.5,6.51c1.13,1.69,1.87,3.73,3.95,5l3.5-2.48c2.11-.08,3.48,1.29,4.78,2.69a20.88,20.88,0,0,1,4.11,7c.8,2.08,1.6,4.18,2.58,6.19a19.11,19.11,0,0,0,2.05,2.89c2.61-.64,3-3.25,4.76-4.17a2.42,2.42,0,0,1,2.72,1.66,48.18,48.18,0,0,1,1.88,5.42c.35,1.22.49,2.51.72,3.76a4.19,4.19,0,0,0,3.25,3.72c.32.08.61.23.92.28,3.83.68,5.22,3.29,5.49,6.84.11,1.59.32,3.18.55,4.77.36,2.57,1.56,4.5,4.22,5.26a8.08,8.08,0,0,1,.9.32c3.35,1.45,3.79,2.2,3.24,5.9-.25,1.73-.76,3.43-1,5.17a25.57,25.57,0,0,0-.35,4.28,5.43,5.43,0,0,0,2.73,4.78,17,17,0,0,0,1.65,1c3.48,1.57,4.39,4.4,3.88,7.91-.24,1.58-.56,3.15-.81,4.72-.23,1.4-.69,2.82,0,4.17.28.24.5.59.76.62,3.19.4,4.09,2.57,4.33,5.36.28,3.19.5,6.39,1,9.55.73,4.57,1.46,9.16,2.6,13.64,2.21,8.71,7.57,14.68,16.28,17.32,4.89,1.48,9.84,2.77,14.77,4.08,2,.53,4,.91,6.15,1.38,1,2.41-.12,4.45-1.07,6.4a7.51,7.51,0,0,1-5,4.22,22.16,22.16,0,0,1-6.61.74,78.1,78.1,0,0,1-9.91-1.62c-3.6-.75-7.14-1.74-10.72-2.58a41.2,41.2,0,0,0-21.34.66q-5.06,1.5-10.06,3.18a30.18,30.18,0,0,0-8.52,4.33c-.77.57-1.57,1.09-2.38,1.61a4.92,4.92,0,0,1-5,.23c-4.64-2.1-4.65-2-8.43,1.64a14.67,14.67,0,0,1-3,2.31c-2.25,1.26-3.75,1-5.7-.63a8.16,8.16,0,0,1-.95-1.08,3.4,3.4,0,0,0-3.43-1.14c-3.64.47-7.31.78-11,1.3-3.44.49-6.3-.17-8.43-3.18-1.57-2.24-3.82-2.64-6.41-2a61.64,61.64,0,0,1-6.57,1.33c-2.75.39-5.08-.37-6.5-3-.3-.56-.68-1.08-1-1.62a4.15,4.15,0,0,0-3.6-2c-1.12,0-2.24,0-3.35.07-1.6.08-3.19.22-4.79.29-3.66.14-6.61-1-8.1-4.65-1-2.36-2.84-3.31-5.29-3.42-1.76-.08-3.51-.22-5.26-.42-3.54-.4-6.46-1.85-8-5.25s-4.13-4.73-7.59-5c-.8-.06-1.6-.1-2.39-.22-2.52-.39-4.66-1.49-5.66-3.92-1.53-3.72-4.49-5.63-8-7.13a37.67,37.67,0,0,1-5.91-3.16c-2.54-1.69-4.19-4.06-3.6-7.29.56-3-.62-4.91-3.31-6.12-3.18-1.44-4.82-4.06-5.5-7.39-.25-1.25-.58-2.49-.84-3.74a11.93,11.93,0,0,0-4.14-6.85,23,23,0,0,1-2.79-2.61c-2.56-3-3.69-6.41-2-10.2,1.41-3.07.77-5.52-1.6-7.75a18.36,18.36,0,0,1-2.17-2.56,8.78,8.78,0,0,1-1.84-7.65c.11-.47.12-1,.26-1.41C21,65.58,20,64,18.47,62.67a19.12,19.12,0,0,0-1.92-1.43c-3.9-2.64-5.6-6.44-5.79-11,0-1.27,0-2.55,0-3.83a13.46,13.46,0,0,0-2.63-8.55C7,36.28,5.88,34.75,4.76,33.2c-1.52-2.09-2.07-4.33-.89-6.76,1.32-2.7.77-5.3-.4-7.85C2.6,16.7,1.57,14.89.7,13c-1-2.22-.92-3.68.35-4.85C2.68,6.68,4.58,5.87,6.77,6.54A5,5,0,0,1,8.55,8.05C9.21,8.74,9.78,9.51,10.16,10ZM117,12.78c-1.74-.8-3.43-1.74-5.22-2.37-2.71-.95-4.33.55-3.94,3.46a9.27,9.27,0,0,0,2.68,5c4.59,5.07,6,11.13,5.76,17.74-.09,2.23-.27,4.46-.41,6.69a14.54,14.54,0,0,0,2.46,9c4.68,7.37,7.29,15.58,9.06,24.06a38.88,38.88,0,0,1,.41,6.67c0,1.12-.12,2.23-.11,3.35a6.42,6.42,0,0,0,3.3,6c2.35,1.35,4.7,2.7,7,4.1,2.73,1.64,5.44,3.32,8.15,5,.41.25.79.56,1.21.77a2.83,2.83,0,0,0,4.28-2.24,15.74,15.74,0,0,0-.1-4.28c-1.42-9.15-2.81-18.3-4.44-27.41a104,104,0,0,0-5.41-18.85,122.92,122.92,0,0,0-13-25.57A35.45,35.45,0,0,0,117,12.78ZM58.16,130.62a19.43,19.43,0,0,0,14.92,1.93,28.8,28.8,0,0,1,4.23-.85c5.23-.61,10.46-1.35,15.72-1.66a48.33,48.33,0,0,1,18,2.35c2.27.74,4.59,1.37,6.89,2a33.08,33.08,0,0,0,12.83,1,52.59,52.59,0,0,0,19.51-6.28,27.85,27.85,0,0,0,3.19-2.1,14.45,14.45,0,0,0,2.13-1.93c2.51-2.77,2.31-5.59-.64-7.77-3.6-2.64-7.27-5.2-10.93-7.78a17.7,17.7,0,0,0-2.07-1.2,6.72,6.72,0,0,0-6.86.14,18.67,18.67,0,0,0-2,1.32,32.56,32.56,0,0,1-14.42,6.11,142,142,0,0,1-31.94,2.78c-6.58-.23-13.11-.44-19.1-3.68a3.6,3.6,0,0,0-4.4.74c-2.25,2-4.6,4-6.79,6C52.51,125.52,52.83,128.09,58.16,130.62Zm109.07-14.83-.1.19c2.37,1.32,4.69,2.75,7.12,3.94,2.1,1,3.77.26,4.57-1.9a13.17,13.17,0,0,0,.47-7.09c-.73-3.77-1.48-7.53-2.38-11.25-1.12-4.66-2.35-9.3-3.6-13.92a66.61,66.61,0,0,1-1.95-24.7c.39-3.65.59-7.32.72-11a26.4,26.4,0,0,0-4-14.6,15,15,0,0,0-2-2.71c-1.9-2-4.51-1.4-5.13,1.28a10,10,0,0,0,.13,4.68c1.78,6.53.27,12.31-3.55,17.68-1.1,1.56-2.12,3.19-3.15,4.81a8.34,8.34,0,0,0-1.08,6.44c.2.93.45,1.86.72,2.78a90.48,90.48,0,0,1,3.21,21.76,23.4,23.4,0,0,1-1.1,9.46c-1.61,4.17-.17,7.11,3.22,9.47,1.18.82,2.39,1.59,3.63,2.33S165.84,115,167.23,115.79Zm-57.7-36.14.19-.33c1.9,1.19,3.75,2.44,5.69,3.54s3.34.59,4.25-1.41a9.46,9.46,0,0,0-.33-8.35c-3.24-6.64-5.38-13.68-8-20.57A65.25,65.25,0,0,0,93.22,25.84Q86,19.54,78.5,13.57A17.47,17.47,0,0,0,73,10.76c-2.4-.77-4.6,0-5.16,1.33-.85,2.06,0,3.75,1.43,5.2,1.56,1.6,3.19,3.13,4.82,4.66A58.86,58.86,0,0,1,87.05,39.06c4,8,7.69,16.19,8.88,25.22.09.63.27,1.25.42,1.87A15.4,15.4,0,0,0,104.1,76.6Zm64.59,48.93c-.81-.46-1.39-.73-1.92-1.09a6.74,6.74,0,0,0-8.45.29l-5,3.71a54.93,54.93,0,0,1-17.87,9l-11.07,3.15c-8.8,2.51-17.72,4.24-27,3.85a13.52,13.52,0,0,0-2.38.13A4.07,4.07,0,0,0,97,150.56a3.34,3.34,0,0,0,1.17,3.88,21.61,21.61,0,0,0,4.82,3c3.3,1.38,6.84,1.4,10.38,1.15a135.3,135.3,0,0,0,37-7.64c8.27-3,16.6-5.8,24.9-8.72a22,22,0,0,0,3.95-1.7,4.3,4.3,0,0,0,1.88-5.41,8.19,8.19,0,0,0-2.14-3.08A58.3,58.3,0,0,0,174.12,128.58Zm-89.37-58c-1.61-.9-3.2-1.67-4.66-2.63-2.8-1.85-5.32-1.73-7.81.6-4.68,4.37-10.44,6.13-16.67,6.35-5.42.2-10.87.2-16.29,0-2.17-.1-4.31-1-6.44-1.65-.76-.22-1.42-.74-2.17-1-1.34-.51-2.43.1-3,1.52-.87,2.12.07,3.8,1.42,5.22,4.47,4.73,9.56,8.49,16.24,9.45,2.21.32,4.43.64,6.65.84a134.86,134.86,0,0,0,39.57-2.69A16.87,16.87,0,0,0,96.08,85,3.88,3.88,0,0,0,96.4,78C92.41,75.68,88.58,73.07,84.75,70.6ZM53.6,50.21l.15-.27L42.31,43a9.08,9.08,0,0,0-5.48-1.39A37.16,37.16,0,0,0,33,42a15.71,15.71,0,0,1-11.5-2,15.38,15.38,0,0,0-4.46-1.58,1.79,1.79,0,0,0-1.57.74,3.06,3.06,0,0,0,.06,2.21c.33.66,1.12,1.09,1.71,1.62,2.93,2.65,3,3,1.18,6.44a3.45,3.45,0,0,1-.25.41,3.81,3.81,0,0,0,.3,4.86,19.49,19.49,0,0,0,2.29,2.43C32.44,67.68,46.12,69.81,61,66.85A6.47,6.47,0,0,0,63.26,66a33.18,33.18,0,0,0,4.57-3.39,2.68,2.68,0,0,0-.22-4.21,19.06,19.06,0,0,0-3.16-2.14C60.85,54.24,57.22,52.24,53.6,50.21Zm67.82,43.41-.08.14-6.85-3.42a17.17,17.17,0,0,0-14.39-.72c-3.72,1.44-7.48,2.78-11.17,4.32a44.42,44.42,0,0,0-11.5,6.81A10.5,10.5,0,0,0,74,105.29a3,3,0,0,0,1.54,4,19.23,19.23,0,0,0,4.59,1.29,66.66,66.66,0,0,0,14.33.58,149,149,0,0,0,31.94-6.07,10.88,10.88,0,0,0,1.36-.46,3.76,3.76,0,0,0,1.31-6.27,12.24,12.24,0,0,0-2.68-2C124.79,95.45,123.09,94.56,121.42,93.62ZM60.22,18.36c-1.43-.72-2.81-1.53-4.29-2.13a20.34,20.34,0,0,0-7.87-1.81c-1.81,0-2.72,1.25-1.93,2.86A36.41,36.41,0,0,0,49.51,23,43.69,43.69,0,0,1,57.6,40.22a13.78,13.78,0,0,0,7.63,9.84c5.38,2.8,10.72,5.67,15,10.08A12.92,12.92,0,0,0,84,62.33a7.81,7.81,0,0,0,2.31.56,2.1,2.1,0,0,0,2.45-1.75,11.79,11.79,0,0,0,.21-2.84,16.54,16.54,0,0,0-2.28-7.25C84.39,47,82.13,43,79.81,39a64.11,64.11,0,0,0-8.56-11.5A45.82,45.82,0,0,0,60.22,18.36Zm124.09,82.23c-2.16,3.68-2.61,5-1.73,8a24,24,0,0,1,.49,11.35,9.56,9.56,0,0,0-.09,2.39c.32,4.12,3.72,8.27,7.39,9.07,3.49.77,5.74-.55,6.19-4.08a19.29,19.29,0,0,0-.27-6.65A38,38,0,0,1,197.7,99a42.87,42.87,0,0,0,1.59-5.52,57.47,57.47,0,0,0,.81-6.15,6.53,6.53,0,0,0-.3-2.36,3.44,3.44,0,0,0-3.22-2.42,3,3,0,0,0-3.06,1.86,11.32,11.32,0,0,0-.88,2.21,27.73,27.73,0,0,1-5.92,10.84C185.7,98.68,184.78,100,184.31,100.59Zm4.58-14.83c1.32-3.44,2.77-6.65,3.77-10a25.47,25.47,0,0,0-.06-15.07c-.64-2.07-1.68-3.94-3.75-4.69A7.57,7.57,0,0,1,184,50.61a5.68,5.68,0,0,0-4.18-3.6,1.84,1.84,0,0,0-2.31,1.16,10.73,10.73,0,0,0-.41,2.81c0,2.07.19,4.14.35,6.2.71,9.37,1.89,18.72,1.64,28.14a13.73,13.73,0,0,0,.3,2.85,4.9,4.9,0,0,0,2.54,3.3c1.51.9,2.74.8,3.77-.61C186.87,89.2,187.88,87.38,188.89,85.76Zm-7.8,69.72a10.22,10.22,0,0,0,.58-1.46c1.13-5.08-.68-7.81-5.83-6.45a59.49,59.49,0,0,0-8,3.16c-2.92,1.25-5.73,2.82-8.73,3.84-5.13,1.75-10.36,3.18-15.55,4.75a23.3,23.3,0,0,0-3.63,1.17,8.65,8.65,0,0,0-2.58,2,2.12,2.12,0,0,0,.57,3.29,14.87,14.87,0,0,0,4,1.42,23,23,0,0,0,11.81-.68c3.68-1.3,7.36-1.94,11.24-.91a7.73,7.73,0,0,0,7.17-1.74c2.67-2.25,5.24-4.63,7.83-7A10.42,10.42,0,0,0,181.09,155.48Zm-132.8-40.9a9.36,9.36,0,0,0,9.61.24,16.65,16.65,0,0,0,3.46-2.52C64,110,66.57,107.58,69,105.06a16.88,16.88,0,0,0,3-4.24,2.79,2.79,0,0,0-2.37-4.21,11.07,11.07,0,0,0-4.24.37c-8.23,2.35-16.12,1.13-23.85-2.11A8.21,8.21,0,0,0,39.38,94a9.13,9.13,0,0,0-3.25.26,1.4,1.4,0,0,0-.89,1.93,3.36,3.36,0,0,0,.7,1.22A28.29,28.29,0,0,1,42,107.59,13.91,13.91,0,0,0,48.29,114.58Zm88.07-98a14.86,14.86,0,0,0-3.13-1,2.41,2.41,0,0,0-2.43,3.53A15.53,15.53,0,0,0,133,22.22c1.43,1.71,3,3.32,4.47,5a30.23,30.23,0,0,1,6.47,11c1.29,3.93,2.85,7.77,4.42,11.61s3.48,4,6.12.72a6.72,6.72,0,0,0,.83-1.17c2.84-5.64,3.82-11.52,1.49-17.54A30.76,30.76,0,0,0,147,19.12,5.29,5.29,0,0,0,142,17.88,5.14,5.14,0,0,1,136.36,16.55Zm65.42,88.69a11.07,11.07,0,0,0-.52,2.33c-.13,2.54-.25,5.09-.15,7.63a106.47,106.47,0,0,1-.08,15.26,14.58,14.58,0,0,0,.2,4.27,5.09,5.09,0,0,0,1.43,2.91,49.16,49.16,0,0,1,6.71,6c1,1.18,2.63,1,4,.39a3.15,3.15,0,0,0,2-3,19.34,19.34,0,0,0-.4-3.78c-.72-4.39-1.4-8.79-2.24-13.16a38,38,0,0,0-1.94-7.35c-1.27-3.08-2.92-6-3.38-9.38a4.27,4.27,0,0,0-2.5-3.3A2.49,2.49,0,0,0,201.78,105.24ZM34.26,31.66l.07-.1c3.52,2.2,7,4.42,10.57,6.6a18.49,18.49,0,0,0,3,1.56A1.87,1.87,0,0,0,50.55,38a7.1,7.1,0,0,0-1.43-4.94A44.52,44.52,0,0,1,45,26.63c-2.74-5.9-7.69-9.23-13.15-12.11-2-1.07-4-1.26-5.83.19a11.86,11.86,0,0,1-6.15,2.41c-1.75.2-2.27,1.45-1.73,3.19a8,8,0,0,0,4,4.55C26.16,27.14,30.21,29.39,34.26,31.66ZM69.45,140.47a25.19,25.19,0,0,0,3.31,1A91.51,91.51,0,0,0,83.12,143c6.35.33,12.73.12,19,1A11.36,11.36,0,0,0,105,144a6.38,6.38,0,0,0,4.1-2.24c1.35-1.5,1.1-3.65-.73-4.37a15.77,15.77,0,0,0-5.52-1.26c-10-.05-20.05.08-30.07.22a7.26,7.26,0,0,0-3.18.76,2.79,2.79,0,0,0-1.1,1.93C68.46,139.47,69.13,140,69.45,140.47ZM97.77,10.67C96,9.86,94.34,9,92.56,8.28a9.45,9.45,0,0,0-3.25-.55A2.9,2.9,0,0,0,86.59,10a2.43,2.43,0,0,0,1,2.93,11,11,0,0,0,1.6,1,17.7,17.7,0,0,1,6.78,6.55c1.84,2.79,3.78,5.51,5.74,8.21a16.31,16.31,0,0,0,2.54,2.83,3.75,3.75,0,0,0,4.44.23A3.26,3.26,0,0,0,110,28c-.44-1.68-1.24-3.27-1.73-4.95A19.3,19.3,0,0,0,97.77,10.67Zm87.08,150.88a6,6,0,0,0,1.89-.34A43.88,43.88,0,0,1,199,156.12a8.6,8.6,0,0,0,5-3.47c1.48-2.06,1.38-3.89-.67-5.38a51.06,51.06,0,0,0-6.13-3.65c-2-1.07-3.18-.74-4.45,1.16-2.28,3.43-4.55,6.87-6.74,10.36C184.81,157,184,159.06,184.85,161.55ZM20.46,27.51l-.12.21c-1.75-1.11-3.47-2.26-5.26-3.29A13,13,0,0,0,12,23.18a2.59,2.59,0,0,0-2.88,1.2,2.47,2.47,0,0,0-.24,2.71,12.64,12.64,0,0,0,1.89,2.71,31.77,31.77,0,0,0,13,7.77,10.12,10.12,0,0,0,3.77.26c1.64-.11,2.4-1.45,2-3.09-.5-2-2-3.2-3.66-4.19S22.27,28.52,20.46,27.51Z"/></g></g></svg>