<svg xmlns="http://www.w3.org/2000/svg" viewBox="0 0 512 512"><defs><style>.cls-1{fill:#fff;}</style></defs><title>Asset 1</title><g id="Layer_2" data-name="Layer 2"><g id="Layer_1-2" data-name="Layer 1"><path class="cls-1" d="M271,512H242c-1.78-.32-3.56-.68-5.35-.94-11.18-1.59-22.49-2.57-33.53-4.86A248,248,0,0,1,86.83,447.72c-44.44-39.5-72.19-88.55-82.76-147.14C2.3,290.79,1.33,280.86,0,271V242c.76-6.57,1.38-13.15,2.3-19.7,8-56.52,31.7-105.41,71.85-146C112.6,37.44,158.89,13.13,212.9,3.94,222.54,2.29,232.3,1.3,242,0h29a27.42,27.42,0,0,0,3.83.86C323.9,4.4,368.37,20.7,407.68,50.14c54.59,40.87,88.25,95,100.32,162.3,1.76,9.78,2.69,19.7,4,29.56v29c-.78,6.41-1.44,12.84-2.34,19.23-7.93,55.82-31.32,104.17-70.74,144.48C400.55,474,354.21,498.52,300.06,508,290.44,509.7,280.69,510.69,271,512Zm-70-92.67c-7,.77-13.46,1.82-19.92,2.11-27.5,1.23-49.09-11.53-57.64-34.81a60.31,60.31,0,0,0-24.92-31c-3-1.9-7.25-6.8-6.55-8.71,1.68-4.53,7.21-3.66,11.44-3.16,14.62,1.71,24.84,10.3,32,22.36,15.14,25.6,39.15,28.79,63.1,19.62,1.25-.48,2.95-1.63,3.15-2.71,2-10.66,6-20.32,13.5-28.41-10.82-2.29-21.32-4-31.53-6.76-30.07-8.2-52.48-25.42-63.26-55.64-5.09-14.26-6.9-29.09-7.33-44.16-.66-23.05,5.58-43.72,20.49-61.6a6.67,6.67,0,0,0,1.06-5.3c-4.4-15.18-3.88-30.26.3-45.35,3.36-12.09,4.21-12.58,16.51-10.1,16.31,3.28,30.47,11.29,44.45,19.8a10.44,10.44,0,0,0,7.24,1.38,205.29,205.29,0,0,1,106.2,0,10.51,10.51,0,0,0,6.83-1.13c8-4.16,15.55-9,23.6-13,9.3-4.55,19-8,29.65-7.92,2.46,0,4.31.33,5.32,3.19,6,17.09,7.87,34.39,2.83,52a7.25,7.25,0,0,0,1.66,7.6c9.27,11.07,16.09,23.64,17.7,38a196.61,196.61,0,0,1,.76,38.27c-2.14,24.94-10.69,47.38-30.37,64.23-13.63,11.68-29.81,18-47.1,21.78-7.67,1.67-15.41,2.95-23.71,4.52,11.29,11.5,14.31,25.28,14.43,40,.16,20,0,40,0,60,0,12.6,6.89,17.35,19,13.1,99.49-35,160.59-133.39,148.22-239.23-6-51.69-27.89-96.07-65.08-132.26-74-72-182-84.8-271.41-32.93C62.9,108.79,18.84,204.07,35.22,293.51q17,92.69,94,147.16a211.6,211.6,0,0,0,53.28,27c11.2,3.87,18.53-1.31,18.56-13q0-5.25,0-10.5Z"/></g></g></svg>