<svg xmlns="http://www.w3.org/2000/svg" viewBox="0 0 1082.99 1082.99"><defs><style>.cls-1{fill:#fff;}</style></defs><title>Asset 1</title><g id="Layer_2" data-name="Layer 2"><g id="Layer_1-2" data-name="Layer 1"><path class="cls-1" d="M541.26,0C840.55,0,1083.32,242.74,1083,541.76,1082.66,841,840.05,1083.33,541.24,1083,242,1082.65-.32,840.08,0,541.24S242.53.05,541.26,0Zm-.54,868c31.83,0,63.66.34,95.48-.09,29.14-.4,58.39-.57,87-7,73.42-16.42,119.43-61,136.95-134.44,7.21-30.22,7.47-61.13,7.67-91.92q.61-93.74,0-187.46c-.18-29.47-.5-59-6.85-88-15.34-70-56.84-115.78-126.31-135.4-27.7-7.82-56.21-9.22-84.67-9.42q-109.2-.73-218.43,0c-24.79.14-49.66,1.29-74,6.83-68,15.48-113.14,55.81-133.19,123.14-8.31,27.92-9.94,56.77-10.13,85.57q-.71,111.21,0,222.43c.13,24.13,1.34,48.33,6.78,72,16.7,72.7,61.07,118.32,133.78,135.85,29.88,7.2,60.46,7.36,90.92,7.81C477.4,868.33,509.06,868,540.72,868Z"/><path class="cls-1" d="M271.1,540.87c1-45.63,1.75-91.27,3-136.9A167.34,167.34,0,0,1,283.34,352c14.16-39.75,42.67-63.23,83.2-72.94,18.91-4.53,38.22-5.7,57.54-6,48.47-.64,97-1.18,145.44-1.06,36.15.08,72.3.95,108.43,2,21.42.65,42.45,4.3,62.11,13.33,34.65,15.91,55.27,43.45,62.56,80.25a317.43,317.43,0,0,1,6,58.5c.66,76.47.48,152.94.13,229.41-.1,21.46-1.36,43-7.09,63.9-13,47.61-44.58,75.36-92.51,84.25a292.35,292.35,0,0,1-51.14,4.8q-117.19.74-234.41.07c-20.63-.08-41.3-1.51-61.39-7C315,788.64,287.59,757.44,278,710c-5.77-28.6-5.17-57.7-5.79-86.64-.58-27.48-.12-55-.12-82.48Zm269.72-168c-91.72-.37-167.46,74.55-168,166.16-.53,93.64,73.81,169.51,166.64,170,93.34.54,169.12-74.19,169.55-167.21C709.46,448.42,634.6,373.2,540.82,372.82Zm175.35,32.64a39.22,39.22,0,1,0-1.81-78.41c-21.35.52-38.81,18.89-38.15,40.13C676.89,388.83,694.82,406,716.17,405.46Z"/><path class="cls-1" d="M431.34,540.69c.24-60.58,49.77-109.82,110-109.35,60.55.47,109.23,49.5,109,109.77A109.22,109.22,0,0,1,540.44,650.32C480,650,431.1,600.89,431.34,540.69Z"/></g></g></svg>