<svg xmlns="http://www.w3.org/2000/svg" viewBox="0 0 283.74 1484.44"><defs><style>.cls-1{fill:#fff;}</style></defs><title>Asset 1</title><g id="Layer_2" data-name="Layer 2"><g id="Layer_1-2" data-name="Layer 1"><path class="cls-1" d="M162.38,1167.87c0,10.57,9,15.22,13.12,23.21-4.71.47-6.09-4.19-9.77-5.27.75,16.34-3.65,31.78-5.55,47.54-.69,5.74,1.81,11.07,3.57,16.46,3.24,9.91,10.56,18.26,10.45,31,3.15-4.68,6.19-4.51,9.75-4.24,6.53.48,12.59-2.93,19.13-3.22a75.29,75.29,0,0,0,8.41-1.19c3.78-.61,5,1,4,4.54a31.58,31.58,0,0,1-8.89,14.83c-4.15,3.71-4.91,7.13-2.87,12.69,3.37,9.17,8.2,18.34,5.49,28.83-.34,1.33.21,3,.61,4.39,1.76,6.21.24,9.44-6.15,11.1-4.15,1.08-4,1.94-1.66,5.33,6,8.55,7.14,15,1.37,25.31-4.55,8.11-8.28,16.69-12.13,25.17-5.71,12.57-9.47,25.89-13.12,39.09-2,7.23-2.71,14.94-5.23,22.16-2.65,7.58-8.6,12.68-13.9,18.25a1.5,1.5,0,0,1-2.23.12,2.4,2.4,0,0,1-.11-1.81,4.89,4.89,0,0,1,1-2.28c4.86-4.88,4.88-12.58,10.17-17.27a8.71,8.71,0,0,0,2.38-4.86c1.9-11.72,6-22.84,8.94-34.28,1.82-7.13.88-8.58-6-10.21-4.14-1-7-3.7-9.84-6.54-5-5.08-9.65-10.64-15-15.39-7.44-6.64-11.07-14.75-11.71-24.52-.36-5.45-1.66-6-5.9-2.8a28.67,28.67,0,0,0-6.08,5.86c-3.69,5.18-8.94,8.41-13.94,12-4.29,3.05-6.69,2.44-8.31-2.53-2.91-8.93-5-18.08-1.67-27.4,2.36-6.65,2-12.29-4.24-16.8-3.44-2.48-2.94-5.21-.07-8.36,4.84-5.31,11.81-7.88,16.38-13.69,2.57-3.27,9.25-1,12,3.13,4.53,6.82,6.17,7.75,13.81,7.77a8.35,8.35,0,0,0,1,0c2.73-.34,5.86,2.85,7.74.68,1.38-1.59.27-5.16.8-7.73.57-2.84-.31-3.37-2.77-2.58-.32.11-.63.22-.95.3-8.81,2.21-9,1.85-9.68-7.33-.35-4.72.59-10-4.15-13.61-1-.79-1-2.57-.4-3.78,2-4,3.93-8,6.17-11.91,1-1.68,3-2.07,4.91-1.86a51.58,51.58,0,0,1,6.88,1.21c5.81,1.48,8.7,0,10.89-5.51.68-1.73-.33-2.83-1.12-4.09a35.9,35.9,0,0,0-10-10.33c-7.38-5.14-9.51-13.1-12.47-20.74a82.54,82.54,0,0,0-4.05-8.56c-7.76-14.68-16.37-28.78-27.38-41.33-4.68-5.33-3.41-11.47-1.06-17.44a21.19,21.19,0,0,1,1.69-2.94c-.91-1.73-2.44-1-3.63-1.22-4-.66-6.56-2.68-6.2-7,.38-4.62-1.6-8.83-1.92-13.31-.51-7.14,1.08-8.8,8.16-9.15a33.34,33.34,0,0,0,7.35-1.24c3.52-1,6.4-7.26,5.07-10.54-.88-2.19-2.52-1.06-3.82-.78-6,1.3-12.1,2.33-18.33,1.88s-6.89-1.69-4.1-7.47c3.72-7.68,8.5-14.67,13.29-21.68a21.3,21.3,0,0,0,2.78-5.27c2.73-8.47,2.75-8.54,12.38-7.34-2.7-5-5.11-9.77-10-12.71-2.41-1.46-4.12-3.33-4-6.42a7.43,7.43,0,0,0-1.79-4.58,134.23,134.23,0,0,1-14-25.29c-2.41-5.65-3.62-5.82-8.52-2.46-4,2.74-7.59,2.32-10.5-1.51s-4.38-2.08-5.62,1.26c-1.72,4.61-1.3,9.55-2.25,14.28a29.67,29.67,0,0,1-5.72,13.15c-2,2.45-4,3-6,0-4.28-6.35-9.38-12.13-12.92-19-3-5.77-7.27-9.17-14.21-9.13-6.12,0-7.74-2.5-5.81-8.31,1.26-3.8,2.84-7.55,6.73-9.56,1.45-.75,2-2.09,2.71-3.43,3-5.8,7.26-7.55,12.7-4,4.3,2.79,6.42,1.85,9.1-1.81a11.78,11.78,0,0,1,8.78-5c5.75-.55,7.68,3.75,10.63,7,1.07,1.17,1.47,3.5,3.47,3.13s1.58-2.72,2.48-4c6.92-10,2.52-21.82,5.63-32.46,1.81-6.18,1.79-12.87,3.22-19.19,1.75-7.72.1-14.74-2.55-21.93-3-8.25-8.16-15.62-10-24.3a308.41,308.41,0,0,0-8-30.79c-2-6.06-4.35-8.12-10.82-8a55.69,55.69,0,0,0-8.91,1c-4.13.76-6.26-1.12-7.33-4.88a34.59,34.59,0,0,1-1.33-9.86A99.8,99.8,0,0,0,30.6,843c-.78-7.16.29-9.61,6.87-11.53,3.66-1.06,3.68-1.94,1.51-4.84-6.35-8.48-6.29-15.29-1.75-25.35,5.91-13.11,14.6-25,17.12-39.7.83-4.83,3.43-9.31,5.14-14,2.87-7.89,3.21-16.23,5.64-24.13a7.86,7.86,0,0,0-.95-7.12C61.25,712,59,707.15,55.54,703c-3.86-4.6-3.21-10-.53-15,2-3.69,1.84-5.63-2.51-7.36-5.13-2-8.36-15.14-6-20,2.74-5.62,1.09-11.75.91-17.66-.1-3.26-2.77-6.73,1.76-9.26,1.31-.73-.37-2-.91-2.92-1.72-2.86-1.67-5.22,2-6,4.76-1,6.67-4.39,8-8.59,1.23-3.79,2.92-7.43,4.36-11.15,1.38-3.55,3.55-3.21,5.65-.94A61.16,61.16,0,0,1,73,610.5c.55.77.56,2.15,1.78,2.13s1.49-1.14,1.92-2.06c6.21-13.19,5.8-26.41.11-39.61-1.28-3-4.64-3.63-6.91-5.54-3.62-3-3.76-4.53.12-7.15A8,8,0,0,0,74,550.79c-.07-3,.54-6,.47-8.95,0-1.57,2.48-3.8-.23-4.61a6.45,6.45,0,0,0-6.39,2,60.93,60.93,0,0,0-4,5.7c-4.29,6.12-8.4,7-14,2.22-2.94-2.5-4.84-3.49-8.37-.85-3.69,2.76-7.61,2-10.31-2.18-2.26-3.47-6.66-4.79-8.39-9-2.27-5.51-1.7-7.49,4.28-8,5.31-.41,8-3.48,10.23-7.58,2.82-5.1,5.58-10.22,8.53-15.24,2.23-3.78,4-3.89,6.79-.38a30.19,30.19,0,0,1,6.18,15.07c.65,4.56,2.49,7.84,7,9.4a5.9,5.9,0,0,1,4,3.49c.6,1.76,1.31,3.13,3.49,2.56,1.72-.45,3.08-1.35,3.34-3.28,1-7.69,3.95-14.77,6.91-21.84,1.09-2.59,0-3.28-2.4-3.27-4.49,0-9,.41-13.44-.72-3.31-.85-5-1.9-2.32-5.79,5.51-7.94,10.86-15.94,17.1-23.35,3.88-4.6,3.33-6.9-.65-11.68-3-3.57-5.5-7.52-8.27-11.26-2-2.73-.65-3.9,2-4.45a32.46,32.46,0,0,1,5.42-.91c4.62-.19,4.88-2.64,3.23-6-1.09-2.24-2.55-4.3-3.68-6.52C79.2,433,77,433,74.84,433.17c-2.54.2-1.67,2.47-1.94,3.93-1.14,6.19-4.76,7.94-10.19,4.84-3-1.73-6.64-2-9.65-4-2.37-1.57-3.55-3-1.59-5.57,2.63-3.39,2.41-6.74.07-10.12-2.56-3.7-3.12-7.94-3.49-12.38-2.11,3.29-2.58,7-3.26,10.67-1.16,6.3-3.12,12.23-7.83,16.93-2.33,2.34-4,2.46-5.78-.64-3.9-6.78-8.48-13.14-11.7-20.34C17,411,13.09,407.48,6.56,407c-7-.57-7.83-2.86-5.17-9.23,2.89-6.9,9.42-10.47,14.07-15.72,2.61-3,7.32-.78,10.49,1.66,2.51,1.94,4.22,2.28,6.28-.72a15.07,15.07,0,0,1,6.31-4.79c4.65-2.14,8.87-1,11.82,3.2A52.41,52.41,0,0,1,55,388.47c1.81,3.75,5.17,4.42,8.63,5.07,2.26.42,3-.59,2.56-2.85-3-14.27-2.71-28.56,2-42.28,2.49-7.16-.08-11.58-5-15.43-3.17-2.49-6-4.92-7.89-8.59-1.09-2.12-3.16-4-4.87-.08A2.63,2.63,0,0,1,48.12,326c-8.51-.16-16.07,4.16-24.35,5.14-3.33.39-4.42-.8-3.72-3.85A26.45,26.45,0,0,1,26.4,315c1.86-2,3.25-4.44,1.79-6.73-2.55-4,.51-9.1-3-12.74a1.14,1.14,0,0,1,.57-1.67c1.09-.44,2,.3,2.69.92C33.33,299,38.27,303.24,43,307.7c5.57,5.27,10.9,10.78,16.38,16.13,1,1,1.82,2.9,3.54,2.24a4.23,4.23,0,0,0,2.49-4.52c-.34-3.35-.84-6.56,1.06-9.69,1-1.66-.86-2.15-1.79-3-4-3.62-4.21-5.76-.9-10.11a3.5,3.5,0,0,0,.8-3.13c-2.42-13.08-4.91-26.14-7.09-39.26-1.34-8.06-4.45-11-13.77-9.72-12.21,1.65-12.92-1-13.05-12.11-.07-5.8,1.2-11.49.34-17.41-.66-4.46,3.13-6.78,7.14-7.62,3.74-.78,4.95-1.63,2.27-5.37-5.77-8-4.23-16.57.74-25.32,6.93-12.2,16.08-23.32,19.71-37.32,1.34-5.15,4.34-9.7,6.44-14.59,4.66-10.85,6.42-22.62,11-33.42,2-4.63,7.09-6.83,9.75-11.08,1.14-1.81,2.87-3.24,4.08-5,6.62-9.71,6.58-9.71-1-18.37-1.87-2.13-3.81-.77-5.44,0-3.48,1.62-6.91,3.22-10.78,3.72s-6.83-.38-8.22-4.57c-1.17-3.55-4.08-6-6.11-9.08-2.3-3.47-2.77-6.82.87-9.71,1.46-1.17,1.75-2.46,1.65-4.34-.29-5.64-.17-11.3-.33-17-.11-3.79,2-5,5.33-5,8.62.11,16.11,4,23.52,7.64,3.16,1.56,3.94,5.41,2.53,8.86a16.81,16.81,0,0,1-3.94,6.29C87.36,38.43,86.85,40,89.84,43c2.66,2.62,3.22,6.46,2.74,10.29s1.13,7.15,4,9.73c1.9,1.69,3.48,1.39,4.87-.87C112,45,123.31,28.34,136.21,12.83c3-3.57,4.56-8.17,8.31-11.16.95-.76,1.61-2.5,3.23-1.2a2.33,2.33,0,0,1,.58,3.18c-3,3.89-2.63,7.66-.52,11.84.87,1.72-.16,3.91-.85,5.81-1.9,5.3-.93,9.36,3.55,12.73,6.76,5.07,11,12,14.41,19.43,1.85,4,.76,5.72-3.59,5.65-8.31-.15-16.65.45-24.88-1.55-3.72-.9-7.8-1.3-11.39,0-5.61,2-8.15-.32-9.52-5.32a21.21,21.21,0,0,0-1.32-2.67c-3,4.58-6.15,8.28-7.06,13.24-.61,3.27-1.56,6-4.93,7.53a7.67,7.67,0,0,0-3.89,4.43C96,81.19,89.86,85.48,88.53,92.45a1.41,1.41,0,0,1-.54.83c-8,5.64-9,14.7-11.62,23.07-2.21,7-5.62,13.56-7.75,20.55-2.4,7.9-.66,9,5.45,10.5,6.26,1.57,9.14,7.48,13.19,11.8,3.06,3.28,5.49,7.18,8.72,10.28,7.87,7.55,10.88,16.85,11,27.45.07,5.23.55,5.25,5,2.91,10.78-5.66,8.83-11.87,1.14-21.32-3.15-3.87-5-8.51-8.38-12.1-.56-.58-1-1.53-.3-2.23,1-1,1.87-.16,2.63.44,6.73,5.23,12.6,11.16,14.9,19.7,1.12,4.15,3.12,4.68,6.32,2.06A20.88,20.88,0,0,1,130.4,185c8.94-5.73,10.62-4.74,12.62,5.92a45.41,45.41,0,0,1-2.69,25.95c-1.94,4.82-1.13,8.72,2.68,12.15a13.28,13.28,0,0,1,4.32,7.68,10.27,10.27,0,0,0,2.78,5.79c6.29,5.85,4.77,12.37,1.25,18.66-1.72,3.07-2.61,4.31,1.88,4.93,4.19.58,5.94,3.33,5.52,7.94-.44,4.92.12,9.94.22,14.92.1,4.62-2.08,6.8-6.77,6.33-1.16-.11-2.34-.09-3.5-.1-8.24,0-10.12,1.35-11.33,9.26-1.14,7.4-3.36,14.61-3.76,22.14-.31,5.61-3.11,10.49-5,15.6a39.58,39.58,0,0,0-.24,27.39c3.59,10.67,5.6,21.56,4.49,32.88a20.78,20.78,0,0,0-.14,2.49c.05,1.66-2,3.89.48,4.82,2,.78,4.41-.19,5.92-1.83a58.75,58.75,0,0,0,4-5.68c4.48-6.24,9.42-7.16,15-2,2.77,2.53,4.56,2.91,7.5.65,3.64-2.79,7.29-2.25,10,1.5,2.45,3.37,7,4.64,8.6,8.84.58,1.47,1.9.78,2.94,0,1.77-1.23,3.67-2.27,5.36-3.6s3.78-1.82,5.49-.41c2.57,2.13,4.66,2.18,7.51.29,3.1-2.05,6.09-1.07,8.11,2.15.79,1.27,1.43,2.63,2.14,4s1.84,2.51,3.52,2.33c1.84-.2,1.69-2,1.74-3.16.39-9.94,4.45-18.69,8.67-27.41,1.86-3.85,1.14-8,0-11.75-2.17-7.33-1.92-14.78-2-22.25-.08-8.63-.51-9.1-9-10.5-3.59-.6-5.38-2.38-4.68-6.17.61-3.27,1.18-6.54,1.76-9.81.21-1.2.65-2.66,1.74-2.86,5-.94,4.52-4,3.46-7.64a7,7,0,0,1,2.18-6.88c11.85-11.48,20.17-25.42,27.83-39.8,2.38-4.47,6.59-6.16,10.87-8.07-1.12,3.27-3.36,5.66-5.79,7.92-6.21,5.82-8.87,13.91-13.32,20.86-.84,1.31-.07,2.31,1.12,3.34,8.67,7.56,16.1,15.87,15.76,28.43-.08,3.24,1.68,2.65,3.55,1.79,3.48-1.59,6.31-4.34,10.12-5.38,4.56-1.24,6-.23,6.43,4.56.38,4.37-1.21,8.24-3.12,11.93-1.42,2.76-2,5.2.07,7.87a4.37,4.37,0,0,1,.8,2.77c-.16,1.89-9.74,7.23-13.09,7.2-3.64,0-5.27-2.43-5.72-5.76-.24-1.72-.48-3.89-2.77-3-2.81,1.08-6.29-4.17-8.53,1.25-2,4.8-5.94,4.83-10.5,3.91-7.4-1.48-7.72-1.22-7,6.33.65,6.78.49,13.67,2.66,20.27s.51,12.32-3,18c-3.17,5.16-6,11-5.43,16.91.78,8.85-1.17,17.93,2.52,26.6,1.9,4.48,10.55,11,15.39,10.13,4.29-.76,8.27.24,12.26,1.44,2.72.81,3.75,2.34,1.24,4.56-5.61,5-10.07,11.29-17,14.82-2.37,1.22-.91,3-.21,4.24,4.77,8.66,6.94,18.1,8.39,27.73.77,5.14,1,5,5.52,2.93a16.78,16.78,0,0,0,9.48-10.7c.5-1.5,1.81-2.78,2.91-4,2.21-2.53,4.08-2.59,5.51.84,1.22,2.91,2.78,5.68,3.93,8.62,1.29,3.25,2.93,5.93,6.64,6.82,1.69.4,3.1,1.28,2.85,3.46-.48,4.1-10.34,9.84-14.08,7.95-2.24-1.14-4-1.67-6.45-.28-4.14,2.35-7.33.81-9.45-3.28a29.56,29.56,0,0,0-1.87-3.52,3.26,3.26,0,0,0-3.42-1.59c-1.54.37-1.25,1.9-1.23,2.94.16,9.18-3.67,17.22-7.38,25.2-2,4.35-2.8,8.89-1.52,13.12,2.61,8.64,2.23,17.4,2.55,26.17.22,5.87,1.59,7.3,7.33,7.89s7,2.32,5.65,7.8c-.67,2.74-1.78,5.37-1.87,8.26,0,.76-.45,2.06-.92,2.18-6.13,1.48-3.89,6.05-4,9.93a9.92,9.92,0,0,1-3.23,6.57c-9.49,9.66-17.56,20.33-23.15,32.74-2.62,5.81-6.92,10-12,13.67-2.23,1.63-5.84,3.42-3.15,7.61,1.41,2.19,2.73,3.47,5.62,2.8s6.61-1,8.21,1.75c1.94,3.41,5.42,7,1.33,11.74-1.51,1.74-1.47,5.06-1.63,7.69-.25,4.11-2.17,4.66-5.63,3.48a37.85,37.85,0,0,1-8.08-3.89c-4.14-2.61-4.61-5.56-.89-8.71,1.89-1.6,2.55-2.65,1.06-4.82-1.22-1.78-.19-3.91-.32-5.87a4,4,0,0,0-2.16-3.71c-1.58-.71-2.39.73-3.32,1.61-7.74,7.33-15.92,14.26-23.07,22.13-8.34,9.18-15.69,19.23-13.07,33,.38,2-1.4,3.29-1.58,5.15-.95,9.89,4.18,17.13,10.42,23.82,1.46,1.57,3.74,1.18,5.73,1.12a30.44,30.44,0,0,1,11.71,2.22c2.67,1,3.61,2.42,1,4.59-.77.63-1.37,1.57-2.23,2-6.49,3.07-5.79,9.82-7.82,15.14-.79,2.09,1,2.51,2.49,2.86,3.31.79,4.46,2.79,4.4,6.19,0,3.13.76,6.27,1.07,9.42.53,5.41-1,7.18-6.39,7.73-3.78.38-5.48,3-3.88,6,.57,1.07,1.86,2.34,2.7,1.57,3.65-3.34,9.88-3.16,11.65-9.28,1-3.33,2.9-7.76,7-7.56s4.06,5.15,5.09,8.26c1.58,4.8,2.46,9.65,8.56,11.15,2.67.65,1.39,2.87.27,4.41a13,13,0,0,1-15.5,4.4c-1.62-.65-2.87-.11-4.3.31-5.78,1.69-7.75.74-10.12-4.74a20.91,20.91,0,0,0-1.26-2.71c-.73-1.16-1.78-2.19-3.23-2s-1.44,1.7-1.56,2.79c-.83,8.13-4.27,15.21-8.11,22.33-6.13,11.34-1.39,22,3.37,32.42a2.72,2.72,0,0,0,2.51,1.4,13.44,13.44,0,0,1,7.69,3.29c1.9,1.61,3.29,1.33,5.27,0,5.22-3.45,7.18-2.38,12.36,1.14s8.31,8.43,12.66,12.42a15.79,15.79,0,0,1,3.14,4.45c1.31,2.59.79,4.57-2.46,5-4.91.72-7.35,4-9,8.31a89.91,89.91,0,0,1-4.65,9.95c-2.19,4.17-4.15,4.45-6.89.62-2.23-3.12-3.6-4.2-5.42.16-1.28,3-3.46,2.81-5.52.78a26.23,26.23,0,0,1-5.73-8.72c-.43-1-.66-2.42-2.24-2.25a2.77,2.77,0,0,0-2.34,2.33c-1.48,6.52-5.43,12.18-6.45,18.83a7.76,7.76,0,0,1-2.47,4.22,13.76,13.76,0,0,0-3.61,7c4.28-1.3,6.15.82,8.32,4.09,3.09,4.66,7.52,8.42,11.13,12.76,4.29,5.17,4.16,5.3-2.12,7.24a18.93,18.93,0,0,0-1.77.78c0,.4-.24.82-.11,1,4.82,6.34,4.73,6.19-1.72,10.35-4.62,3-10,5.24-11.79,11.38-.64,2.15-3.22,2.76-5.47,2.87-2.5.12-5.07-.26-7.48.23-2.91.59-9.36-1.45-5.28,5.77a1.81,1.81,0,0,1-.14,1.44c-5,10-.73,19.15,2.4,28.39,1.53,4.51,4.45,8.54,4.53,13.55,0,1.44,1.33,1.74,2.35,2.3,4.81,2.65,9.5,5.54,14.81,7.15,3.38,1,3.92,3.23,2.41,6.21a30.58,30.58,0,0,1-7.52,9.89c-2.67,2.23-5.65,4-8.05,6.67-1.7,1.84-4.25,1.9-6.58,1.33-2.59-.63-3.54.25-4,2.84-1,6-1.11,5.95,5,5.22,1.81-.21,3.63-.34,5.44-.61,4.66-.68,8.08,1.07,9.05,5.7.77,3.65,2.25,4.13,5.23,2.58a4.09,4.09,0,0,1,2.41-.5c4.11.83,5.35-1.2,6.2-4.9,1.12-4.91,5.36-6.08,9.6-3.44,2.95,1.84,6.14,3.29,9.18,5s3.58,3.89,1.17,6.46c-2.76,2.94-2.23,5.85-.68,9.17,3,6.41,3.81,13.12,1.14,19.84-.72,1.8-.15,2.76.74,4a150.93,150.93,0,0,1,9.59,14.59,11.85,11.85,0,0,0,10.59,6.35c9.08.3,10.52,2.89,6.76,11.33-2.61,5.87-8,9.65-11.86,14.54-2.1,2.64-6.7,1.67-9.74-.46s-5-2.51-7.53,1.1a14.22,14.22,0,0,1-8.42,5.92c-2.81.66-5.45.36-7.44-1.68-4.48-4.59-10.73-6.63-15.33-11A8.78,8.78,0,0,0,162.38,1167.87Zm31-493.92c3.63-2.28,4.23-6,6.94-8.07,10.77-8.38,18.33-19.33,24.57-31.3,1.26-2.41.09-3.58-1.72-5.36-7.48-7.35-14.75-15-14.42-26.63.11-4.23-1.73-4-4.54-2.38-3,1.73-5.91,3.72-9.28,4.84-4.6,1.54-6,.58-6.23-4.38a23.23,23.23,0,0,1,3-12.45c1.05-2,1.8-3.76.55-6.09-2.44-4.57-1.8-6,3.12-7.91,1.39-.55,2.89-.84,4.24-1.46,6.61-3.07,7.36-2.8,10,4,1.21,3.16,8.91,5.3,10.25,2.58,3.76-7.61,9.76-5.53,15.46-4.07,2.94.76,3.92,0,3.42-2.59-1.28-6.73.1-13.8-2.12-20.31-3.16-9.26-1.17-17.26,3.34-25.66,3.51-6.52,7.17-13.8,2.81-21.72a2,2,0,0,1,.15-1.42c3.62-8.84-1-16.46-4.06-24.08-1.58-4-7-3.15-8.84.88-2.63,5.74-12.1,7.87-15.78,3a50.7,50.7,0,0,0-9.56-9.31c-2.23-1.74-1.8-3.14-.05-4.88,2.33-2.3,5.43-3.2,8.12-4.81,3.37-2,6.44-1.09,7.44,2.05,2.15,6.77,8.67,6.41,13.27,9.05,2.06,1.17,4,.45,2.72-2.83-1.88-4.63-3.7-9.29-5.31-14-4.08-12-7.73-24.08-9.9-36.58-.49-2.81-.92-4-4.47-2.09-5,2.68-8.45,6-10.07,11.43a11.5,11.5,0,0,1-3.19,4.41c-1.92,1.9-3.87,1.93-5.11-.85q-2.22-5-4.28-10.12c-1-2.4-2.28-4.39-4.92-5.27-6.45-2.15-16,1.56-18.78,7.71a121.61,121.61,0,0,1-7.09,12.61c-1.8,2.95-2.65,7.32-7.89,5.11-.41-.17-1.54.68-1.95,1.3-3.77,5.74-9.45,9.23-14.84,13.15-4.89,3.55-9.7,3.4-13.46-1.29a19.15,19.15,0,0,1-3.46-6.6c-.27-.92-.38-2.22-1.48-2.4-1.51-.24-1.78,1.28-2.24,2.27-3.16,6.79-6.26,13.61-9.38,20.42-.78,1.71-1.2,3.32-.21,5.22,2.07,4,3.92,8.09,5.84,12.15a4.27,4.27,0,0,0,3.8,2.81c2.3.08,1.84-1.95,2.32-3.21,2-5.35,7.37-9.31,10.87-7.25,5.53,3.25,11.35,6.32,15.15,12,1.81,2.68,1.19,4.16-1.37,5.56a74.3,74.3,0,0,0-8.57,5.08c-1.85,1.38-5.61,1.18-5.59,3.45,0,2.94,4.08,1.54,6,3.14,1.41,1.19,3,3.32,5.46.78,3.25-3.37,6.56-3,10,.25,2.26,2.1,5.13,4.68,7.5,5.31,3.38.91,2.65-4.78,5.18-6.51a4.78,4.78,0,0,0,.7-.72c3.77-4,4.84-3.88,7.7.87,4.05,6.69,8.09,13.38,11.49,20.46A13.2,13.2,0,0,0,195.47,539c8.85,1.13,9.84,3.41,5.65,11.44a15.58,15.58,0,0,1-5.89,6.62,10.19,10.19,0,0,0-3.27,3c-4.14,5.95-8.37,6.93-14.2,2.74-2.88-2.06-4.41-2.15-6.92.62-6.08,6.68-14.29,9.34-19.93-1.66-.76-1.48-1.88-2.76-2.71-4.2-1.53-2.65-3.9-3.91-6.76-4.68-3.34-.91-4.35-.4-4,3.52.82,9.06,2.38,18.11.78,27.3a402.64,402.64,0,0,1-9.3,39.26c-.35,1.25-.51,2.34.25,3.28,2.87,3.56,2.17,7.39,1.29,11.41-1,4.42.08,8.54,4.15,10.88,6,3.46,9.93,8.77,13.95,14.07,1,1.32,1.61,3.08,3.6,3.11,3.57.06,3.85,2.44,3.84,5.14,0,3.34.27,6.72,1.78,9.72,2.23,4.41,1.43,9.58-3,14.57-2.52,2.85-5.76,1.94-8.82.89-2.45-.84-4.6-1.68-6.44,1.35-1.75,2.87-2.54,5.18.14,8,5.77,6,13.25,10.68,15.6,19.44,0,.14.21.26.33.37.73.68,1.47,1.49,2.56,1.31,1.33-.21,1.24-1.42,1.3-2.37.65-8.92,5-16.41,8.92-24.16,4.24-8.37,8.46-17-.24-25.5-1-1-1.33-2.67-1.74-4.1-1.25-4.29-.52-5.2,4-4.3,5.37,1.07,10.62,2.85,16,3.63C189.5,670.14,192.33,670.17,193.37,674Zm-63.74,288C123,963,123,963,119.31,956.67a18.21,18.21,0,0,0-3.56-4.14c-5-4.47-9-9.85-13.56-14.67-3-3.1-1.5-4.58,1.68-5.64a30.43,30.43,0,0,1,13.34-1.28c5.67.69,10-1.55,14.1-5,1.84-1.5,2.65-2.81,1.34-5a12.65,12.65,0,0,1-1.42-9.64c.93-4-.8-4.37-4-3-3.53,1.46-6.72,3.63-10.58,4.38-3.34.65-4.74-.65-4.87-3.79a21.6,21.6,0,0,1,3.91-13.2c1.34-2,2.64-4.13,1.07-6.44-3.13-4.62.14-6.2,3.52-7.6a63.67,63.67,0,0,1,7.58-2.42c2.86-.78,5.24.3,5.9,3.09.81,3.38,2.19,5,5.74,6.4,4.41,1.71,5.81,0,7.56-3.14.48-.86,1.86-1.41,2.93-1.71,2.23-.63,2.64-2.21,2.81-4.17.76-9-1.3-17.52-4.91-25.72-.6-1.34-1.53-2.87-2.79-1.17-4,5.35-10.67,7.3-14.85,12.42-4.51,5.53-11,4.77-14.57-1.55a44.78,44.78,0,0,1-3.06-7.36c-.7-2-1.79-2.73-3.72-1.71a15.26,15.26,0,0,1-11.67,1c-3.49-1-4.29.21-4.29,3.57,0,7.91-3.11,13.26-9.48,13.82-5,.44-10.07,1.65-15.19.91-5.76-.84-6.71,0-4.87,5.55,4,12,6.75,24.38,11.65,36.11,3.65,8.73,6.77,17.69,10.11,26.55.47,1.22,1.2,2.37.75,3.81-3.16,10.19-4.57,20.74-6.4,31.2-.76,4.3-2.13,9,4.26,10.67.85.21,1.45,1.33,2.24,1.94s1.24,2.41,2.67,1.63,1.11-2.31,1-3.63a8.48,8.48,0,0,0-2.3-4.37,22.14,22.14,0,0,1-3.93-9.09c-.71-3,.49-4.16,3.44-3.39,2.57.67,5.35,1,7.62,2.31,5,2.78,11.79.8,15.7,6.23.71,1,1.72.24,2-.46,1.53-3.94,5.3-5.13,8.3-7.41C123.87,968.91,127.75,966.37,129.63,961.92ZM96.4,289.86c-3.22-.84-3.56,1.78-4.11,3.7-1.06,3.68-2.49,6.75-6.53,8.13s-4.22,3.17-1.39,6.35c1,1.14,2.45,2.23,1.75,3.82-1.58,3.63-2.68,7.52-5.21,10.67-3.63,4.49-4.47,10.05-6,15.34-.27.92.36,1.55,1.09,2,4.07,2.73,5.94,7.16,7.87,11.26,6.74,14.29,16.24,26.62,26.94,38,4.62,4.91,6.32,9.53,3.82,15.64-.69,1.68-1,2.89,1.39,3,4.67.3,6.08,3.15,6.16,7.43,0,1.83.21,4.88,2.52,4.72,2.62-.18,1.94-3.36,2.4-5.34a3,3,0,0,0-1-2.7,2.57,2.57,0,0,1-.2-3.6c3.26-4.56,3.75-9.83,3.82-15.19.13-8.14-2-15.93-5.11-23.24-4.4-10.44-2.88-20.1,1.12-30.15,4.57-11.47,6.09-23.8,8.77-35.79.39-1.75.22-3.78-2.39-2.94-3.75,1.2-7.59.28-11.32.93-4.1.7-6.92-1.27-9.75-3.84s-.47-8.05-3.93-8.84c-3-.68-6.62,1.76-10.18.73Zm40.06,493.2c1-7.2,1.23-14.46,6.67-20.16,2.39-2.5,4-5.7,6.12-8.5,1.68-2.26,3.12-5,5.85-6,5.22-1.91,4.78-5.15,2.69-9-.78-1.47-1.51-3-2.33-4.41-2.64-4.71-6-4.78-9-.12-1.32,2.11-2.2,4.53-3.69,6.49s-2.9,4.57-5.79,4.13c-2.54-.38-2.51-3.26-3.43-5.11a23.43,23.43,0,0,1-1.84-5.17c-.89-4.16-2.56-7.48-7.09-8.75-2.36-.66-2.42-2.37-1.25-4.34,2.81-4.7,10.95-7.32,15.61-4.76a3,3,0,0,0,3.65-.07c1.71-1.23.32-2.55-.25-3.45-4-6.28-9.7-11.1-14.64-16.57-.71-.78-2.41-1.68-3-1.35-3.62,1.92-7.56.77-11.25,1.6-1.47.32-3.09.73-3.69,2.28-3.45,9-11.19,14.79-16.67,22.26-2.58,3.52-5.69,6.62-10.11,7.79-2.65.71-3.48,2.49-3.06,4.89s.63,4.82,1.81,6.69c6,9.61,5.27,22.71,15.46,30.16,2.74,10.85,14.59,16,17,27.08.09.44.56.81.9,1.18.64.7,1.17,1.81,2.4,1.15a2.27,2.27,0,0,0,1-2.62,17.23,17.23,0,0,0-1.31-3.73,28.76,28.76,0,0,1-2.59-16c.64-5.32,2.21-6.05,7.22-4.06C127.17,776.62,130.91,781.31,136.46,783.06ZM106.59,568.33c2.53-.08,5.11-1.43,6.38,1,2.58,5,7.65,7.36,11.1,11.36,2.2,2.54,7.16,4.51,5.92,7.83-1.5,4-6.83,3.44-10.68,3.6-6.4.27-12,0-17.58,5.5-3.92,3.82-6.23,7-7,12-.82,5.5-3.35,11,0,16.45.2.33,0,1-.18,1.44-3.16,9.7.57,18.26,4.37,26.83,1,2.3,2.23,2.35,3.53.4,1.66-2.49,3.17-5.08,4.7-7.65,8.08-13.66,18.7-25.83,22.53-41.94,2.9-12.19,6.25-24.19,5-36.88-.42-4.1-.36-8.54-3.5-11.67-2.13-2.11-2.65-3.62-.29-5.72a2.92,2.92,0,0,0,1-2.13c-1.6-8.61-2.19-17.62-9.58-23.95-2.67-2.29-4-1.15-4.27,1.67-1.34,13.93-4.7,27.28-11.1,39.79A9.15,9.15,0,0,0,106.59,568.33Zm52.28,608.25c-4.34,13.1-13.12,23.41-22.39,33.41a3.64,3.64,0,0,1-1.73,1c-5.41,1.36-5.65,5.16-3.23,8.78,7,10.41,8.17,24.17,19,32.31.72.54.77,1.9,1.44,2.57,5.12,5.18,7.49,13.07,15.76,15.83a155.94,155.94,0,0,0-5.95-15c-4.41-10-9-20.11-4.36-31.52,1.11-2.73,1.21-5.86,1.86-8.78C162.12,1202.12,163.15,1189.14,158.87,1176.58ZM78.28,549.85c1.76-5.89,6.79-4.46,10.85-5,6.26-.81,8,.38,9.64,6.27.46,1.64.28,4.41,2.92,3.57s6.09,1.57,7.68-2.74c2.79-7.55,4.19-15.37,5.23-23.29.12-1,.29-2.27-.21-2.93-1.88-2.46-1.25-4.78-.38-7.38.76-2.29,1.08-4.62-2.78-4.7-2.39,0-3.83-2.15-4.36-4.3-1.28-5.16-5.15-7.11-9.64-6.8-4.7.33-9,2.14-10.13,7.92-.48,2.56-1.87,5-2.78,7.45-2.23,6.09-6.19,11.95-2.54,18.89.26.49-.24,1.67-.73,2.22C78.24,542.16,78.18,546,78.28,549.85ZM91.16,223.92c-.34-6.32-1.46-12.52.29-18.83.9-3.25,2.64-4.42,5.76-3.93,1.48.24,2.93.6,4.39.94,1.84.42,3-.13,2.94-2.17,0-7.2,0-14.77-4.24-20.7a228.3,228.3,0,0,0-22.56-26.59c-2-2-4.45-3.52-7.58-3.07-1.84.27-3,.48-2,3.05,4,10.11,3.58,20.54.93,30.83-1,3.77-.54,5.73,3.22,7.32,5.21,2.2,10.36,4.83,10.39,11.81,0,.48.68,1.12,1.2,1.42,2.78,1.58,3.37,4.27,4,7.11C88.83,215.41,90.06,219.65,91.16,223.92Zm59.22,1116.77a88.67,88.67,0,0,1,1.44,9.22c.55,10.09-.47,11-10.47,10.56-1.74-.09-3.2.11-2.88,2.25,1.19,7.86,1.31,16.19,7.22,22.41,7.22,7.6,14.75,14.91,22.18,22.31,2.08,2.07,4.55,3.48,7.58,3.2,2.14-.19,3.84-.57,2.47-3.71a48.17,48.17,0,0,1-2.57-31.75c.75-3,.06-4.38-2.92-4.93a16.86,16.86,0,0,1-11.64-8C156.76,1355.48,152.28,1348.77,150.38,1340.69Zm19.49-522.61c.64-4.31-.7-5.74-5.25-5-3,.47-6.05,1.56-9.33.57-4-1.22-9.6,2.52-10.29,6.84-.81,5.06,2.53,10.23-.26,15.35-.22.4.81,1.39,1,2.17,3.73,12.19,9.91,23.65,10.85,36.66.15,2.16.18,4.32.29,6.48.16,3.29,2.84,4.3,5.18,4.39,2.8.1,1.68-2.71,1.66-4.2-.11-8.13.59-16.28-.85-24.4-.53-3-1-6.54.45-9.36C168.27,838.24,167.8,827.87,169.87,818.08ZM70.58,727.22c-2.51,10.89-7.29,20.71-9.42,31.3a17.42,17.42,0,0,0-.18,3c-.07,3,1.33,4.9,4.28,5.13,4.89.38,8.26,3.21,11.46,6.46C83.49,780,90.35,786.76,97,793.74c1.73,1.81,2.58,2.16,4.62.21,2.57-2.46,2.76-4.32.71-7.18-2.63-3.67-5.14-7.56-8.69-10.23-7-5.27-8.38-13.22-10.41-20.7C80.49,745.68,73.86,737.35,70.58,727.22ZM119.79,1055c-.13-1.73-.29-3.45-.36-5.18-.25-6,2.74-11.74,6.54-11.41,4.8.43,9.22-1.36,13.85-1.36s5.52-1.85,3.64-5.89a60.91,60.91,0,0,1-5.29-27.67c0-.93.62-2.14-.87-2.39-1-.17-2.35.18-2.55,1.15-.68,3.28-3.94,4.33-5.51,6.86-2.14,3.43-5.33,3.47-8.78,2-1.4-.62-2.71-2.85-4.29-1.35s-2.17,4.33-1.25,5.57c2.83,3.83.36,6.81-.33,10.34C112.6,1035.9,114.58,1045.73,119.79,1055ZM86.18,625.31c3.19-.64,3.36-2.73,3.6-5a153.07,153.07,0,0,1,4.66-23.95c3.29-12.05,6.87-24,11.26-35.7.44-1.17,1.33-2.56.11-3.73a2.79,2.79,0,0,0-3.71-.2c-4.28,4.43-13.33,2.78-14.42,11.31a3.16,3.16,0,0,1-2,2c-5.39,1.24-4.26,4.19-3,8.19,1.35,4.33,4.55,8.48,3.39,13.22-1.89,7.73-4.43,15.3-6.65,22.95-.48,1.69-2.15,3.75-.45,5.11C81.4,621.51,84.81,622.29,86.18,625.31ZM142.4,1155c-.37,1.59-.66,2.88-1,4.16-1.77,7.68-4.07,15-12.16,18.57-2.5,1.11-1.87,3.1-1,5.07,3.25,7.23,3.37,14.79,2.25,22.47-.16,1.09-1.13,2.39.09,3.21a3.77,3.77,0,0,0,3.82-.15,16.33,16.33,0,0,0,5.37-5.12c4.17-5.58,8.2-11.26,12.35-16.85,4.26-5.77,4.52-11.76,1.73-18.27-.77-1.81-1.56-1.91-2.9-1.43-4.34,1.55-6.18-.68-7-4.5C143.47,1159.91,143,1157.65,142.4,1155ZM44.26,825.62c1.45-9.33,6.25-15.28,15.05-17.69,1.35-.37,2.73-.7,3-2.19,2.15-10.79,2.47-21.45-2.56-31.66-.43-.87-.85-2-1.94-2.09-1.6-.18-1.67,1.35-2.14,2.33-4.27,9-8.47,18-12.8,26.95-1.24,2.56-.23,5.84-2.5,8-3.91,3.6-2.28,7.17-.1,10.73C41.41,821.76,42.73,823.44,44.26,825.62ZM196.32,1354.2c-1.22,10.29-6.47,16.39-16,18.7a2.51,2.51,0,0,0-2,1.94c-2.3,11-2.42,21.79,2.86,32.08,1.21,2.36,2.17,2.55,3.54-.16,3.82-7.53,7.37-15.17,10.9-22.84,1.9-4.12,1.71-9.2,4.54-12.39,3.61-4.06,2.06-7.19.17-10.74C199.26,1358.77,198,1356.86,196.32,1354.2ZM45.87,205.22c2.78-10.92,8.18-17.16,18.32-18.13.88-.09,1.22-1,1.49-1.82,3.48-10.41,3.88-20.83.06-31.25-.38-1.06-.73-2.47-2-2.61s-1.62,1.44-2.24,2.34c-5.8,8.3-10.15,17.43-14.93,26.32-1.25,2.32-.7,5.53-2.89,7.3-4.17,3.36-2.83,7-.89,10.67A24,24,0,0,1,45.87,205.22ZM96,797c-8.11-9-16-17.91-25.14-25.67C69.23,770,67.12,770,65.1,770c-2.58,0-3.87.73-2.35,3.57,1.82,3.41,2.54,7.18,3.34,10.94,1.46,6.87.46,13.63-.69,20.34-.57,3.34,1,4.3,3.59,5.4,3,1.24,3.53-.27,4.53-2.5,1.7-3.78,4.85-6.73,6.51-10.61.83-1.94,2.87-1.9,4.72-2.17C88.71,794.41,92,796.61,96,797ZM68,369.78c.67,5.31,1.44,10.74,2,16.19a5,5,0,0,0,3.42,4.49c2.46.81,2.74-1.85,3.67-3.18,3.56-5.1,5.41-11.56,11.87-14.31a2.3,2.3,0,0,0,.94-3.45c-4.36-7.63-8.66-15.31-13.29-22.79-1.52-2.45-3.4-2.29-4.48.87C69.69,354.75,68.89,362.18,68,369.78ZM95.68,675.87c.13,7.87-5.09,12.63-9.29,18.2-2.52,3.37-5.65,7.58-4.92,12.14a46.88,46.88,0,0,1-.79,16.8c-.24,1.19-1.58,2.7.13,3.5a5.18,5.18,0,0,0,3.85,0,11.54,11.54,0,0,0,3.89-3c5.36-6.15,10.62-12.37,15.86-18.62a8.33,8.33,0,0,0,2.43-6c-3,.46-5.57,1.06-8.19,1.2-1.83.1-4.1,1.72-5.49-.59-1.15-1.9-.3-4.14.85-5.65C98.19,688.36,99,682.54,95.68,675.87Zm14.21,353.21a26.94,26.94,0,0,0,0-3.41c-.26-1.77,1.88-4.37-1-5.17-2.6-.71-4.83.78-6.24,3.13-.85,1.43-1.53,3-2.41,4.37-1.72,2.76-2.85,6-7,6.38-2.75.29-1.52,2.69-.85,3.92,3,5.53,5.09,11.52,8.82,16.74,2.93,4.1,5.26,6.72,11.15,4.42,3.77-1.47,3.69-2.62,2.57-5.53C111.75,1045.81,109.59,1037.47,109.89,1029.08Zm60.82,277a11,11,0,0,1,2.83.45c4.49,1.75,5-.11,4.13-4-2.17-10.11-6.28-19-13.72-26.51-3-3-4.18-2.28-5.88.68-1.88,3.27.14,7.32-1.41,10.18-2.78,5.12-1.27,8.14,2.06,12.42C163.44,1305.34,162.8,1305.85,170.71,1306.1ZM84.46,418.94c.63-9.44,2.06-12.81,8.5-19.05,1.59-1.54,1.33-2.83.51-4.4A28.38,28.38,0,0,1,90.55,381c.06-1.56.71-3.71-1.32-4.39-2.33-.77-3.66,1.18-4.72,2.85-2.93,4.62-5.55,9.46-8.64,14-2.74,4-3.09,8.29-2.67,12.84.27,2.77,1.18,4.42,4.46,3.12,2.8-1.11,4.48.52,5.28,3C83.6,414.45,83.93,416.58,84.46,418.94Zm76.18,513.73-1-.57c-1.2,1.09-2.46,2.13-3.61,3.28-8.27,8.24-14,18.38-20.64,27.84-2.17,3.1-4.94,5.76-6,9.58-.38,1.35-2.21,2.48-1,4s3.14,1.46,4.64.94c5.91-2.06,12-3.93,14.15-11,1-3.49,2.45-6.88,3.81-10.27C154.15,948.53,157.41,940.6,160.64,932.67Zm-29.55,158.4c2.93-.19,7.38.74,8.83-3.66a26.46,26.46,0,0,0-2.26-22.41,1.57,1.57,0,0,0-2.12-.71c-3.25,1.19-6.55.94-9.86.48-1.7-.24-3.08.52-2.07,2.09,3.66,5.7.51,11.34.16,17C123.39,1089.77,124.48,1091.25,131.09,1091.07Zm-22.91,78.57c-3.51,6.07-3.23,5.94.49,14,3.82,8.28,9.88,14.92,15,22.26.62.89,1.32,2.32,2.65,1.72.68-.3,1.07-1.59,1.32-2.51,2-7.38.9-14.53-1.72-21.54-.61-1.62-1.42-2.84-3.5-3C115.66,1180,111,1176.35,108.18,1169.64Zm13.6-917.15c-7.14-1.16-8.3-6.71-9.44-11.87-1-4.73-3.25-4.25-6.11-2-6.11,4.76-7.52,11.39-7.37,18.71.07,3.26.86,4.73,4.39,3.42,4.08-1.52,6,.66,6.45,4.44.35,2.83.37,5.71.56,9.05C112.93,266.33,115.18,258.83,121.78,252.49Zm127,74.44c1-3.67,2.65-5.48,6.25-4.55,2.42.62,2.53-1.4,2.72-3.11.56-5-7.86-21.71-12.22-24.12-1.92-1.07-3.51-.87-3,1.74.93,4.85-.59,9.19-2.24,13.56-.49,1.3-1,2.75.47,3.57C245.47,316.72,246.38,321.81,248.73,326.93Zm-29,268.6c-1.62,2.94-2.95,5.25-6.37,3.85-2.24-.91-2.29,1-2.49,2.5-.75,5.7,7.33,22.26,12.26,25,2.08,1.16,3.19.81,2.75-1.84-.8-4.93.4-9.54,2.29-14,.47-1.09,1.08-2.48-.26-3.09C222.94,605.63,222.52,600.35,219.76,595.53ZM158.68,756.16a7.47,7.47,0,0,0,.1-1.49c-.2-1.66,1.89-4-.5-4.84-2-.72-3.69,1.25-4.89,2.8-3,3.8-5.69,7.78-8.57,11.64-1.9,2.54-3.88,5-4.51,8.23-.47,2.32-.68,4.06,2.83,2.57,3.24-1.37,6.93-3.54,10.26-.44,2.58,2.4,4.15.35,6.1-.6,2.69-1.32,1.48-3.24.85-5.1A31.12,31.12,0,0,1,158.68,756.16Zm-7.94-318.23c-.82-3.77-1.71-7.09-2.24-10.55-.61-3.94-2.44-7.2-6.56-8.61a8.31,8.31,0,0,1-5-4.45c-1.57-3.23-4.06-2.08-5.39-.05a8.55,8.55,0,0,0-1.09,7.17C133.6,431.36,142.53,434.2,150.74,437.93Zm12.65,669c-.76,6-2.25,12-6.85,15.23-4.35,3.06-4.82,5.72-2.73,9.78,1.05,2,.19,6,3.51,5.68,2.46-.25,1.74-3.84,2.33-5.95,1.49-5.37,5.79-8.43,10.28-6.41,3.35,1.51,3.75.23,3.74-2.49,0-1.33,0-2.66,0-4,.09-2.58-.32-4.28-3.64-3.09s-5-.68-5.68-3.75C164,1110.37,163.76,1108.8,163.39,1106.92ZM94,375.83c-2,6.23-1,11.43.73,16.68.85,2.63,2.21,4.17,5.13,4.56,4.58.61,8.32,2.78,10.29,7.24,3.81-4.33,1.68-7.13-1.19-10.8C104.36,387.57,99.9,381.55,94,375.83ZM61.42,685.47c-2.92,5.39-6.89,9.39-1.13,14,.65.53.57,1.87,1,2.75,1.76,3.5,3.59,7,5.47,10.58,3.54-3.52,7-6.27,9.19-10.33,1.26-2.34,1.43-3.67-1.43-4.29C68.08,696.81,63.2,693.61,61.42,685.47ZM106,793.82c-2.78-.06-5.12,4.2-4.44,7.49.91,4.38,2.24,8.71,2.78,13.14s1.79,5.33,5.24,2.32c.75-.65,1.63-1.15,2.44-1.73,3.49-2.48,5.29-5.29,2.33-9.46-2.49-3.51-4.72-7.21-7.13-10.79A4.31,4.31,0,0,0,106,793.82Zm-4.33-554.63c-2.21-1.56-4.91-1.48-7.31-2.16s-2.32,1.28-2.29,2.74c.08,4.32-.47,8.61-4.23,11.17s-2.19,4.05.27,5.86q2.2,1.6,4.51,3.07c3,1.9,4.11.91,4-2.47-.28-5.94.77-11.58,4.25-16.57C101.12,240.43,101.29,240,101.69,239.19ZM84.84,645.83c6-.2,6.64-1,5.93-6.62-.33-2.62-.56-5.26-1-7.85-.26-1.45.9-3.72-1.52-4.11-2-.32-3.32,1.14-4.27,2.83-1.81,3.26-2.7,7.13-6.5,9-1.1.57-.13,1.72.2,2.62C78.93,645.28,82.25,645,84.84,645.83ZM242.57,604.5a4.05,4.05,0,0,0-1.11.84c-2.09,3.3-5.42,4.17-9,4.58-1.4.16-1.89,1.14-2.41,2.2a21.81,21.81,0,0,0-2.08,12.1c.1,1,0,2.16,1.17,2.52.91.28,1.41-.64,2-1.19,5-4.64,8.47-10.58,12.76-15.83C245.41,607.93,244.46,606,242.57,604.5ZM240.64,300a17.15,17.15,0,0,0-.3-3.15c-.36-1.5-1.26-2.58-2.76-1.05a112,112,0,0,0-13.23,16.62,3,3,0,0,0,.79,4.06c1.41,1.07,2-.49,2.76-1.23a10.79,10.79,0,0,1,4.19-2.56C238.17,310.52,240.39,307.39,240.64,300Zm-110-51.6c7.75,1.48,13,4.87,15.25,12.8,2.42-3.74,5.61-6.86,3.27-10.66a39,39,0,0,1-4.16-7.71c-.42-1.23-1.59-2.93-2.86-1.86C138.79,243.78,133.84,244.12,130.67,248.38ZM95.44,996.86c-4.24,1.46-4.2,4-3.09,7.3,1.37,4.06,3.55,7.08,7.77,8.35,2.15.64,4,1.65,4.73,4,.5,1.65,1.43,1.93,3,1.52,2.16-.55,2.8-2,3-4,.22-1.68-.63-1.87-2-2.59C102.87,1008.18,96.64,1004.89,95.44,996.86Zm47.9-93.09c-1.65,1.63-1.79,5.33-4.22,4.65-7.44-2.09-5.24,3.74-5.85,6.85-.33,1.74.22,4.66,3.08,3.93,3.64-.91,8.33,1.74,10.84-3a2.8,2.8,0,0,0-.44-2.31C144.69,910.94,144.88,907.27,143.34,903.77Zm-77-642.86c.12-1.86.24-3,.26-4.18.07-3.16-2.33-4.18-4.62-4-2.7.17-1.32,2.67-1.07,4,1.3,6.86,2.7,13.7,4.37,20.47.49,2-.36,5.89,2.38,5.44,3-.5,2.3-4.31,2-6.91a14.31,14.31,0,0,0-1.34-4.25C66.66,267.85,66.57,264,66.35,260.91Zm53.86,820.44a28.85,28.85,0,0,0-1.74-17.46c-1.57-3.67-4.34-2.89-7.11-2-1.63.55-3.66,1.74-2.19,3.5C113.16,1070.19,115,1076.42,120.21,1081.35Zm25-537.73c8.13-1.69,11.69-6.92,12.69-14.31.23-1.7,1.85-3.94-.15-4.94s-4.16.57-5.61,2.2a12.55,12.55,0,0,0-2.17,3.84C148.38,534.7,146.89,539.05,145.25,543.62Zm30.47,581.43c-.76,3.13.09,4.39,1.93,4.94,1.64.5,3.32,1.92,5,.27,4.13-4,3.49-9.93-1.34-13-1.27-.81-2.65-1.81-4.1-1.31-1.8.61-1.12,2.5-1.23,3.9C175.85,1122,175.78,1124.09,175.72,1125.05ZM69.18,408.19c-.72-3.69-1.13-6.64-1.9-9.5s-3.23-3.1-5.54-3.29c-2.73-.23-1.7,2.21-2.28,3.53a14.38,14.38,0,0,1-1.77,2.93c-.82,1.05-.65,1.67.48,2.31,2.72,1.54,5.35,3.25,8.11,4.7C67.62,409.58,69.33,410.11,69.18,408.19Zm109,888.66.67-1.16c1.43,4.28,2.45,8.77,4.41,12.79s6.27,3.68,10.1,3.45c1.39-.08,1.66-1.28.73-2.06C188.79,1305.47,183.45,1301.18,178.13,1296.85ZM155.6,929.14c3.33.16,11.34-8.52,11.05-11.39-.23-2.14-1.13-3.26-3.11-1.41a12.1,12.1,0,0,1-8.46,3.49c-1.88,0-3,1.16-2.18,2.87C154,924.86,152.74,928.22,155.6,929.14ZM125,1127.37c2.19.07,3.83,1,4.57-.45.87-1.76-1.14-2.48-2-3.56-1.54-1.93-3.77-2.66-6.09-3.06-1.66-.29-3.56-.5-4.23,1.53s-1.93,4.64-.65,6.71c1.16,1.9,2.94-.17,4.46-.38S124.26,1127.51,125,1127.37Zm-7.5-488.48c2.84-.3,4.79-.8,6.7-.65,2.89.23,4.28-1.09,5.07-3.62.86-2.75-.2-4.9-2-6.79-1.1-1.17-2.4-1.19-3.32.29C121.91,631.43,119.94,634.8,117.49,638.89Zm22.11-616c3.1.47,5.33-.49,5.85-3.8.43-2.69.47-6-2.38-6.89s-3.62,2.65-5.06,4.49a9.62,9.62,0,0,0-.82,1.25c-.75,1.37-3.12,2.23-2.16,4.05C135.9,23.68,138.06,22.65,139.6,22.92Z"/></g></g></svg>